<?xml version="1.0" encoding="utf-8"?>
<!-- Generator: Adobe Illustrator 25.3.1, SVG Export Plug-In . SVG Version: 6.00 Build 0)  -->
<svg version="1.1" xmlns="http://www.w3.org/2000/svg" xmlns:xlink="http://www.w3.org/1999/xlink" x="0px" y="0px"
	 viewBox="0 0 122 122" style="enable-background:new 0 0 122 122;" xml:space="preserve">
<style type="text/css">
	.st0{fill-rule:evenodd;clip-rule:evenodd;fill:#F5BE00;}
	.st1{fill-rule:evenodd;clip-rule:evenodd;fill:#FFFFFF;}
	.st2{fill-rule:evenodd;clip-rule:evenodd;fill:#DDA516;}
</style>
<g id="Layer_3_xA0_Image_1_">
</g>
<g id="Logo">
	<path class="st0" d="M61,0c33.68,0,61,27.32,61,61c0,33.68-27.32,61-61,61C27.32,122,0,94.68,0,61C0,27.32,27.32,0,61,0"/>
	<path class="st1" d="M40.21,33.57H29.13c2.78,16.49,8.27,25.93,17.35,26.85c-0.99-1.66-1.8-3.45-2.46-5.27
		c-5.17-2.54-7.95-10.61-9.45-17.11h6.01C40.44,36.55,40.32,35.05,40.21,33.57 M81.79,33.57h11.08
		c-2.78,16.49-8.27,25.93-17.35,26.85c0.99-1.66,1.8-3.45,2.46-5.27c5.17-2.54,7.95-10.61,9.45-17.11h-6.01
		C81.56,36.55,81.68,35.05,81.79,33.57z M51.33,87.74L51.33,87.74L61,87.74h9.67v-0.01h1.26v3.2H50.06v-3.2H51.33z M61,38.75
		l1.38,4.27l4.49-0.01l-3.64,2.63l1.4,4.27L61,47.27l-3.63,2.65l1.4-4.27l-3.64-2.63l4.49,0.01L61,38.75z M56.61,77.89
		c0.39,3.98-1.44,5.96-5.1,6.26h-5.04v6.79h-3.76v3.59h3.76h29.04h3.76v-3.59h-3.76v-6.79h-5.03c-3.66-0.31-5.49-2.28-5.1-6.26h0.17
		c0.54,0,0.98-0.44,0.98-0.98c0-0.54-0.44-0.98-0.98-0.98h-0.17c-1.14-0.88-1.91-1.97-2.4-3.24v-5.29
		c12.66-2.22,15.88-17.27,17.07-35.09c-10.39-6.45-27.71-6.45-38.11,0c1.19,17.82,4.41,32.87,17.07,35.09v5.29
		c-0.48,1.27-1.26,2.36-2.4,3.24h-0.17c-0.54,0-0.98,0.44-0.98,0.98c0,0.54,0.44,0.98,0.98,0.98H56.61z"/>
	<path class="st2" d="M70.67,87.74H61h-9.67v-0.01h-1.26v3.2h21.87v-3.2L70.67,87.74L70.67,87.74z M53.04,65
		c-7.36-5.05-9.85-16.72-10.92-30.33l-1.91-1.1c0.11,1.48,0.23,2.97,0.37,4.47h-6.01c1.5,6.5,4.28,14.57,9.45,17.11
		c0.66,1.82,1.47,3.61,2.46,5.27c-0.67-0.07-1.33-0.18-1.96-0.34L53.04,65z M58.77,45.65l-1.4,4.27L61,47.27l3.63,2.65l-1.4-4.27
		l3.64-2.63l-4.49,0.01L61,38.75l-1.38,4.27l-4.49-0.01L58.77,45.65z M122,61c0-3.83-0.35-7.57-1.03-11.2l-28.1-16.22
		c-2.78,16.49-8.27,25.93-17.35,26.85c0.99-1.66,1.8-3.45,2.46-5.27c5.17-2.54,7.95-10.61,9.45-17.11h-6.01
		c0.15-1.5,0.27-3,0.37-4.47h0.47l-2.2-1.27c-1.19,17.82-4.41,32.87-17.07,35.09v5.29c0.48,1.27,1.26,2.36,2.4,3.24h0.17
		c0.54,0,0.98,0.44,0.98,0.98c0,0.54-0.44,0.98-0.98,0.98h-0.17c-0.39,3.98,1.44,5.96,5.1,6.26h5.03v6.79h3.76v3.59h-3.76H46.48
		h-3.76l40.41,23.33C105.87,109,122,86.88,122,61z"/>
</g>
</svg>
